<svg xmlns="http://www.w3.org/2000/svg" viewBox="0 0 100 100" preserveAspectRatio="xMidYMid" width="233" height="233" style="shape-rendering: auto; display: block; background: rgb(255, 255, 255);" xmlns:xlink="http://www.w3.org/1999/xlink"><g><g transform="rotate(0 50 50)">
  <rect fill="#008f35" height="12" width="6" ry="2.2800000000000002" rx="2.2800000000000002" y="24" x="47">
    <animate repeatCount="indefinite" begin="-2.477477477477478s" dur="2.7027027027027026s" keyTimes="0;1" values="1;0" attributeName="opacity"></animate>
  </rect>
</g><g transform="rotate(30 50 50)">
  <rect fill="#008f35" height="12" width="6" ry="2.2800000000000002" rx="2.2800000000000002" y="24" x="47">
    <animate repeatCount="indefinite" begin="-2.2522522522522523s" dur="2.7027027027027026s" keyTimes="0;1" values="1;0" attributeName="opacity"></animate>
  </rect>
</g><g transform="rotate(60 50 50)">
  <rect fill="#008f35" height="12" width="6" ry="2.2800000000000002" rx="2.2800000000000002" y="24" x="47">
    <animate repeatCount="indefinite" begin="-2.027027027027027s" dur="2.7027027027027026s" keyTimes="0;1" values="1;0" attributeName="opacity"></animate>
  </rect>
</g><g transform="rotate(90 50 50)">
  <rect fill="#008f35" height="12" width="6" ry="2.2800000000000002" rx="2.2800000000000002" y="24" x="47">
    <animate repeatCount="indefinite" begin="-1.801801801801802s" dur="2.7027027027027026s" keyTimes="0;1" values="1;0" attributeName="opacity"></animate>
  </rect>
</g><g transform="rotate(120 50 50)">
  <rect fill="#008f35" height="12" width="6" ry="2.2800000000000002" rx="2.2800000000000002" y="24" x="47">
    <animate repeatCount="indefinite" begin="-1.5765765765765767s" dur="2.7027027027027026s" keyTimes="0;1" values="1;0" attributeName="opacity"></animate>
  </rect>
</g><g transform="rotate(150 50 50)">
  <rect fill="#008f35" height="12" width="6" ry="2.2800000000000002" rx="2.2800000000000002" y="24" x="47">
    <animate repeatCount="indefinite" begin="-1.3513513513513515s" dur="2.7027027027027026s" keyTimes="0;1" values="1;0" attributeName="opacity"></animate>
  </rect>
</g><g transform="rotate(180 50 50)">
  <rect fill="#008f35" height="12" width="6" ry="2.2800000000000002" rx="2.2800000000000002" y="24" x="47">
    <animate repeatCount="indefinite" begin="-1.1261261261261262s" dur="2.7027027027027026s" keyTimes="0;1" values="1;0" attributeName="opacity"></animate>
  </rect>
</g><g transform="rotate(210 50 50)">
  <rect fill="#008f35" height="12" width="6" ry="2.2800000000000002" rx="2.2800000000000002" y="24" x="47">
    <animate repeatCount="indefinite" begin="-0.900900900900901s" dur="2.7027027027027026s" keyTimes="0;1" values="1;0" attributeName="opacity"></animate>
  </rect>
</g><g transform="rotate(240 50 50)">
  <rect fill="#008f35" height="12" width="6" ry="2.2800000000000002" rx="2.2800000000000002" y="24" x="47">
    <animate repeatCount="indefinite" begin="-0.6756756756756758s" dur="2.7027027027027026s" keyTimes="0;1" values="1;0" attributeName="opacity"></animate>
  </rect>
</g><g transform="rotate(270 50 50)">
  <rect fill="#008f35" height="12" width="6" ry="2.2800000000000002" rx="2.2800000000000002" y="24" x="47">
    <animate repeatCount="indefinite" begin="-0.4504504504504505s" dur="2.7027027027027026s" keyTimes="0;1" values="1;0" attributeName="opacity"></animate>
  </rect>
</g><g transform="rotate(300 50 50)">
  <rect fill="#008f35" height="12" width="6" ry="2.2800000000000002" rx="2.2800000000000002" y="24" x="47">
    <animate repeatCount="indefinite" begin="-0.22522522522522526s" dur="2.7027027027027026s" keyTimes="0;1" values="1;0" attributeName="opacity"></animate>
  </rect>
</g><g transform="rotate(330 50 50)">
  <rect fill="#008f35" height="12" width="6" ry="2.2800000000000002" rx="2.2800000000000002" y="24" x="47">
    <animate repeatCount="indefinite" begin="0s" dur="2.7027027027027026s" keyTimes="0;1" values="1;0" attributeName="opacity"></animate>
  </rect>
</g><g></g></g><!-- [ldio] generated by https://loading.io --></svg>